<svg class="icon" width="25px" height="25px" viewBox="0 0 1024 1024" version="1.1" xmlns="http://www.w3.org/2000/svg"><path fill="#333333" d="M884.356845 265.48042c-7.061109-7.993045-15.433129-11.990079-25.117082-11.990079L325.42503 253.490342c-9.68293 0-18.055972 3.997034-25.117082 11.990079-7.061109 7.993045-10.591664 17.866926-10.591664 29.622668l0 622.082164c0 11.285021 3.530555 21.042245 10.591664 29.269627 7.061109 8.228405 15.433129 12.343119 25.117082 12.343119l409.137037 0c3.227643 0 9.381042-4.113691 18.460195-12.343119 9.07813-8.228405 19.569506-18.574031 31.47208-31.033807 11.902574-12.4608 24.410971-26.331715 37.524167-41.612747 13.113196-15.282055 25.01577-29.858028 35.708745-43.728944 10.691952-13.870916 19.569506-26.096355 26.629592-36.675294 7.060086-10.579963 10.591664-17.750269 10.591664-21.511943l0-476.789057C894.948509 283.347346 891.417954 273.473465 884.356845 265.48042zM340.54399 548.453237c0-10.106172 8.193957-18.299785 18.300553-18.299785l466.976731 0c10.106596 0 18.300553 8.193613 18.300553 18.299785l0 14.240329c0 10.106172-8.193957 18.299785-18.300553 18.299785L358.844543 580.993351c-10.106596 0-18.300553-8.193613-18.300553-18.299785L340.54399 548.453237zM844.390967 689.792289c0 10.106172-8.193957 18.299785-18.300553 18.299785L359.113684 708.092074c-10.106596 0-18.300553-8.193613-18.300553-18.299785l0-14.240329c0-10.106172 8.193957-18.299785 18.300553-18.299785l466.976731 0c10.106596 0 18.300553 8.193613 18.300553 18.299785L844.390967 689.792289zM844.390967 435.997002c0 10.106172-8.193957 18.299785-18.300553 18.299785L359.113684 454.296787c-10.106596 0-18.300553-8.193613-18.300553-18.299785l0-14.240329c0-10.106172 8.193957-18.299785 18.300553-18.299785l466.976731 0c10.106596 0 18.300553 8.193613 18.300553 18.299785L844.390967 435.997002zM226.826362 193.58088l540.328351 0L767.154714 110.914112c0-9.611915-7.792804-17.404392-17.405122-17.404392L146.456614 93.50972c-9.612319 0-17.405122 7.792477-17.405122 17.404392l0 767.251452c0 9.611915 7.792804 17.404392 17.405122 17.404392l80.369749 0L226.826362 193.58088z" /></svg>
