<svg class="icon" width="25px" height="25px" viewBox="0 0 1024 1024" version="1.1" xmlns="http://www.w3.org/2000/svg"><path fill="#333333" d="M869.539604 344.621898l-716.314339 0c-42.318828 0-76.747965 34.429137-76.747965 76.747965l0 460.487789c0 42.318828 34.429137 76.747965 76.747965 76.747965l716.314339 0c42.318828 0 76.747965-34.429137 76.747965-76.747965l0-460.487789C946.287569 379.051035 911.859455 344.621898 869.539604 344.621898zM127.64261 881.857653 127.64261 431.17723l225.961358 225.961358-0.215918 0L127.668193 882.858446C127.65489 882.525871 127.64261 882.193297 127.64261 881.857653zM164.61057 395.787208l693.542706 0L511.382435 742.559073 164.61057 395.787208zM389.675512 693.210132l121.707946 121.707946 122.325-122.325L848.554664 907.440307 175.445336 907.440307 389.675512 693.210132zM670.612972 657.138588l-1.451048 0 225.960335-225.961358 0 450.472692L670.612972 657.138588z" /></svg>
