<svg class="icon" width="25px" height="25px" viewBox="0 0 1024 1024" version="1.1" xmlns="http://www.w3.org/2000/svg"><path fill="#333333" d="M818.542 541.497c15.39 11.97 26.22 26.362 32.49 43.177s8.835 34.343 7.695 52.583c-1.14 18.24-5.13 36.48-11.97 54.72-6.84 18.24-15.675 34.77-26.505 49.59-19.38 26.79-41.325 49.59-65.835 68.4-24.51 18.81-49.875 34.485-76.095 47.025-26.22 12.54-52.582 22.372-79.087 29.497s-51.443 12.398-74.813 15.818-44.318 5.557-62.842 6.412c-18.525 0.855-32.918 1.283-43.178 1.283-10.26 0-23.94-0.713-41.04-2.138-17.1-1.425-36.052-4.275-56.858-8.55s-42.608-10.26-65.408-17.955-45.03-17.813-66.69-30.352-42.322-27.93-61.987-46.17c-19.665-18.24-36.338-40.185-50.018-65.835-9.12-16.53-15.247-34.2-18.382-53.01-3.135-18.81-4.702-42.75-4.702-71.82 0-12.54 2.138-26.79 6.412-42.75 4.275-15.96 11.827-33.63 22.658-53.01 10.83-19.38 25.65-40.47 44.46-63.27 18.81-22.8 42.75-47.88 71.82-75.24 28.5-26.79 57.997-50.588 88.492-71.392 30.495-20.805 63.128-36.908 97.897-48.307 15.96-5.7 33.63-8.835 53.01-9.405s35.34 2.565 47.88 9.405c5.7 6.27 11.115 12.682 16.245 19.237s8.55 14.678 10.26 24.367c1.71 7.98 1.853 15.675 0.428 23.085-1.425 7.41-2.993 14.82-4.703 22.23-1.71 7.41-3.135 14.535-4.275 21.375s-0.57 13.11 1.71 18.81c9.69 1.14 19.095 0.713 28.215-1.283 9.12-1.995 17.955-4.56 26.505-7.695 8.55-3.135 17.243-6.412 26.078-9.832 8.835-3.42 18.098-5.985 27.787-7.695 15.39-2.85 30.638-4.133 45.743-3.848 15.105 0.285 28.785 2.423 41.04 6.413s22.372 10.118 30.352 18.383 12.825 18.952 14.535 32.063c1.14 7.98 0.57 15.39-1.71 22.23s-4.703 13.253-7.268 19.237c-2.565 5.985-4.56 12.112-5.985 18.383-1.425 6.27-0.997 12.825 1.283 19.665 1.71 3.99 5.842 7.695 12.397 11.115 6.555 3.42 14.108 6.84 22.658 10.26 8.55 3.42 17.527 7.125 26.932 11.115C803.58 531.807 811.702 536.367 818.542 541.497zM603.082 807.403c14.82-9.12 29.782-21.66 44.888-37.62 15.105-15.96 27.36-33.772 36.765-53.438 9.405-19.665 14.677-40.755 15.818-63.27 1.14-22.515-4.56-45.172-17.1-67.973-10.83-18.81-24.083-34.77-39.758-47.88-15.675-13.11-33.202-23.512-52.582-31.207s-40.042-13.253-61.987-16.673c-21.945-3.42-44.318-5.13-67.118-5.13-43.89 0-82.793 4.56-116.707 13.68-33.915 9.12-63.27 21.09-88.065 35.91-24.795 14.82-44.888 31.635-60.278 50.445s-26.22 37.905-32.49 57.285c-6.27 18.81-8.122 37.478-5.557 56.003 2.565 18.525 8.408 36.053 17.527 52.583 9.12 16.53 20.948 31.35 35.482 44.46 14.535 13.11 30.637 23.655 48.308 31.635 32.49 14.25 65.693 23.227 99.607 26.932 33.915 3.705 66.263 3.847 97.043 0.427s58.853-9.405 84.217-17.955C566.46 827.068 587.122 817.662 603.082 807.403zM491.077 537.222c11.4 4.56 22.23 9.69 32.49 15.39 10.26 5.7 19.38 13.395 27.36 23.085 5.7 6.84 10.688 15.39 14.962 25.65 4.275 10.26 7.268 21.233 8.978 32.918 1.71 11.685 2.138 23.513 1.282 35.482-0.855 11.97-3.563 22.8-8.122 32.49-4.56 10.26-10.117 20.663-16.672 31.208s-14.535 20.378-23.94 29.497c-9.405 9.12-20.663 17.242-33.772 24.367-13.11 7.125-29.07 12.398-47.88 15.818-34.2 6.27-66.975 3.135-98.325-9.405-31.35-12.54-55.86-33.345-73.53-62.415-6.84-22.23-10.545-41.895-11.115-58.995s3.99-35.625 13.68-55.575c7.41-15.39 18.668-29.782 33.772-43.177 15.105-13.395 32.49-24.225 52.155-32.49 19.665-8.265 40.613-13.11 62.842-14.535C447.472 525.11 469.417 528.672 491.077 537.222zM355.132 747.552c21.09 1.71 37.193-3.42 48.307-15.39 11.115-11.97 17.1-25.365 17.955-40.185 0.855-14.82-3.42-28.072-12.825-39.758-9.405-11.685-24.082-16.387-44.033-14.107-15.39 1.71-27.36 8.265-35.91 19.665-8.55 11.4-13.395 23.512-14.535 36.337s1.568 24.653 8.122 35.482C328.77 740.427 339.742 746.412 355.132 747.552zM704.827 113.997c41.61 0 80.513 5.558 116.708 16.673s67.83 27.217 94.905 48.307c27.075 21.09 48.307 46.74 63.697 76.95 15.39 30.21 23.085 64.41 23.085 102.6 0 18.81-4.56 32.918-13.68 42.323-9.12 9.405-18.952 14.25-29.497 14.535s-20.378-3.705-29.497-11.97c-9.12-8.265-13.68-20.948-13.68-38.048 0-22.8-6.27-44.46-18.81-64.98-12.54-20.52-29.07-38.475-49.59-53.865s-44.032-27.503-70.537-36.338c-26.505-8.835-53.438-13.253-80.798-13.253-17.67 0-30.78-4.275-39.33-12.825s-12.54-18.098-11.97-28.643 5.843-20.092 15.818-28.642C671.625 118.272 686.017 113.997 704.827 113.997zM704.827 250.798c53.01 0 93.195 13.537 120.555 40.613 27.36 27.075 41.04 67.973 41.04 122.693 0 17.1-2.85 29.212-8.55 36.337s-11.97 10.26-18.81 9.405c-6.84-0.855-13.11-4.988-18.81-12.397-5.7-7.41-8.55-17.385-8.55-29.925 0-33.63-9.69-60.42-29.07-80.37-19.38-19.95-45.315-29.925-77.805-29.925-10.83 0-18.81-2.993-23.94-8.978s-7.695-12.397-7.695-19.237c0-6.84 2.707-13.253 8.122-19.238C686.73 253.79 694.567 250.798 704.827 250.798z" /></svg>
